<svg width="163" height="71" viewBox="0 0 163 71" fill="none" xmlns="http://www.w3.org/2000/svg">
<path d="M17.4715 52.8755C15.971 52.8755 14.8115 52.4663 13.993 51.6478C13.1746 50.7953 12.7653 49.6187 12.7653 48.1182V24.0249H4.73421C3.47242 24.0249 2.50051 23.7009 1.81846 23.053C1.17051 22.3709 0.846539 21.416 0.846539 20.1884C0.846539 18.9266 1.17051 17.9717 1.81846 17.3238C2.50051 16.6758 3.47242 16.3518 4.73421 16.3518H30.2087C31.4705 16.3518 32.4254 16.6758 33.0733 17.3238C33.7554 17.9717 34.0964 18.9266 34.0964 20.1884C34.0964 21.416 33.7554 22.3709 33.0733 23.053C32.4254 23.7009 31.4705 24.0249 30.2087 24.0249H22.1776V48.1182C22.1776 49.6187 21.7854 50.7953 21.0011 51.6478C20.2167 52.4663 19.0402 52.8755 17.4715 52.8755ZM52.4881 52.9778C48.8391 52.9778 45.6335 52.2105 42.8712 50.6759C40.1089 49.1072 37.9605 46.9246 36.4259 44.1282C34.9254 41.3319 34.1751 38.0751 34.1751 34.3579C34.1751 31.5615 34.6014 29.0209 35.4539 26.736C36.3406 24.4512 37.5853 22.4903 39.1882 20.8534C40.8251 19.2164 42.7689 17.9717 45.0197 17.1191C47.2704 16.2325 49.7599 15.7892 52.4881 15.7892C56.137 15.7892 59.3256 16.5565 62.0538 18.0911C64.8161 19.6257 66.9646 21.7912 68.4992 24.5876C70.0338 27.3499 70.8011 30.6066 70.8011 34.3579C70.8011 37.1543 70.3577 39.6949 69.4711 41.9798C68.6185 44.2647 67.3738 46.2426 65.7369 47.9136C64.1341 49.5505 62.2073 50.8123 59.9565 51.699C57.7058 52.5515 55.2163 52.9778 52.4881 52.9778ZM52.4881 45.1002C54.2955 45.1002 55.8301 44.6739 57.0919 43.8213C58.3537 42.9688 59.3256 41.7411 60.0077 40.1383C60.6897 38.5355 61.0307 36.6087 61.0307 34.3579C61.0307 30.9818 60.2805 28.3559 58.78 26.4803C57.2795 24.6046 55.1822 23.6668 52.4881 23.6668C50.7148 23.6668 49.1802 24.0931 47.8843 24.9457C46.6225 25.7641 45.6506 26.9747 44.9685 28.5776C44.2865 30.1463 43.9454 32.0731 43.9454 34.3579C43.9454 37.734 44.6957 40.377 46.1962 42.2867C47.6967 44.1624 49.794 45.1002 52.4881 45.1002ZM81.0646 52.8755C79.5641 52.8755 78.4046 52.4663 77.5861 51.6478C76.7677 50.7953 76.3584 49.6187 76.3584 48.1182V20.6487C76.3584 19.08 76.7677 17.9035 77.5861 17.1191C78.4046 16.3007 79.5641 15.8915 81.0646 15.8915C82.5992 15.8915 83.7587 16.3007 84.543 17.1191C85.3615 17.9035 85.7707 19.08 85.7707 20.6487V31.8002H85.873L98.3033 18.0911C98.9513 17.409 99.6333 16.8804 100.349 16.5053C101.1 16.0961 101.935 15.8915 102.856 15.8915C104.288 15.8915 105.311 16.2666 105.925 17.0168C106.573 17.733 106.863 18.5856 106.795 19.5745C106.761 20.5294 106.369 21.4161 105.618 22.2345L93.2391 35.381V31.5445L106.232 46.2255C107.119 47.2145 107.562 48.2376 107.562 49.2948C107.562 50.3178 107.204 51.1704 106.488 51.8524C105.806 52.5345 104.783 52.8755 103.419 52.8755C102.259 52.8755 101.321 52.6538 100.605 52.2105C99.9232 51.7331 99.1729 51.034 98.3545 50.1132L85.873 36.1483H85.7707V48.1182C85.7707 49.6187 85.3785 50.7953 84.5942 51.6478C83.8098 52.4663 82.6333 52.8755 81.0646 52.8755ZM113.315 52.8755C112.257 52.8755 111.371 52.6368 110.655 52.1594C109.938 51.6478 109.495 50.9658 109.325 50.1132C109.154 49.2266 109.307 48.2376 109.785 47.1463L122.522 19.728C123.136 18.398 123.886 17.4261 124.773 16.8122C125.694 16.1984 126.734 15.8915 127.893 15.8915C129.053 15.8915 130.059 16.1984 130.911 16.8122C131.798 17.4261 132.565 18.398 133.213 19.728L145.951 47.1463C146.496 48.2376 146.684 49.2266 146.513 50.1132C146.377 50.9999 145.951 51.6819 145.234 52.1594C144.552 52.6368 143.7 52.8755 142.677 52.8755C141.313 52.8755 140.255 52.5686 139.505 51.9547C138.789 51.3409 138.141 50.3519 137.561 48.9878L134.799 42.4913L138.38 45.1002H117.304L120.936 42.4913L118.174 48.9878C117.56 50.3519 116.929 51.3409 116.281 51.9547C115.633 52.5686 114.645 52.8755 113.315 52.8755ZM127.791 26.1733L121.857 40.3429L120.425 37.8875H135.311L133.878 40.3429L127.893 26.1733H127.791ZM155.323 52.7221C153.789 52.7221 152.561 52.2617 151.64 51.3409C150.753 50.4201 150.31 49.2095 150.31 47.709C150.31 46.2426 150.753 45.0661 151.64 44.1794C152.561 43.2586 153.789 42.7983 155.323 42.7983C156.926 42.7983 158.154 43.2586 159.006 44.1794C159.893 45.0661 160.336 46.2426 160.336 47.709C160.336 49.2095 159.893 50.4201 159.006 51.3409C158.154 52.2617 156.926 52.7221 155.323 52.7221Z" fill="white"/>
</svg>
