<svg width="351" height="221" viewBox="0 0 351 221" fill="none" xmlns="http://www.w3.org/2000/svg">
<rect x="27.4238" y="0.635742" width="296.156" height="219.375" rx="17.55" fill="white"/>
<g clip-path="url(#clip0_63_7)">
<path d="M297.254 44.5093H53.7477C48.9014 44.5093 44.9727 48.438 44.9727 53.2843V193.684C44.9727 198.531 48.9014 202.459 53.7477 202.459H297.254C302.1 202.459 306.029 198.531 306.029 193.684V53.2843C306.029 48.438 302.1 44.5093 297.254 44.5093Z" fill="#F9F8FF"/>
<path d="M288.48 53.2854H123.949C119.103 53.2854 115.174 57.2141 115.174 62.0604V184.91C115.174 189.757 119.103 193.685 123.949 193.685H288.48C293.326 193.685 297.255 189.757 297.255 184.91V62.0604C297.255 57.2141 293.326 53.2854 288.48 53.2854Z" fill="#F2EEFF"/>
<path d="M272.028 64.2542H134.918C133.707 64.2542 132.725 65.2363 132.725 66.4479C132.725 67.6595 133.707 68.6417 134.918 68.6417H272.028C273.239 68.6417 274.221 67.6595 274.221 66.4479C274.221 65.2363 273.239 64.2542 272.028 64.2542Z" fill="#FF9C39" fill-opacity="0.35"/>
<path d="M188.663 81.8037H173.307C172.095 81.8037 171.113 82.7859 171.113 83.9975C171.113 85.209 172.095 86.1912 173.307 86.1912H188.663C189.875 86.1912 190.857 85.209 190.857 83.9975C190.857 82.7859 189.875 81.8037 188.663 81.8037Z" fill="#FF9C39"/>
<path d="M190.859 178.329H134.918C133.707 178.329 132.725 179.311 132.725 180.523C132.725 181.734 133.707 182.717 134.918 182.717H190.859C192.071 182.717 193.053 181.734 193.053 180.523C193.053 179.311 192.071 178.329 190.859 178.329Z" fill="#FF9C39" fill-opacity="0.1"/>
<path d="M208.408 169.553H152.467C151.256 169.553 150.273 170.535 150.273 171.747C150.273 172.959 151.256 173.941 152.467 173.941H208.408C209.619 173.941 210.602 172.959 210.602 171.747C210.602 170.535 209.619 169.553 208.408 169.553Z" fill="#FF9C39" fill-opacity="0.1"/>
<path d="M199.634 152.004H143.694C142.482 152.004 141.5 152.986 141.5 154.198C141.5 155.409 142.482 156.392 143.694 156.392H199.634C200.846 156.392 201.828 155.409 201.828 154.198C201.828 152.986 200.846 152.004 199.634 152.004Z" fill="#FF9C39"/>
<path d="M277.511 134.454H210.602C209.39 134.454 208.408 135.436 208.408 136.647C208.408 137.859 209.39 138.841 210.602 138.841H277.511C278.723 138.841 279.705 137.859 279.705 136.647C279.705 135.436 278.723 134.454 277.511 134.454Z" fill="#FF9C39"/>
<path d="M219.377 160.778H201.827C200.615 160.778 199.633 161.76 199.633 162.972C199.633 164.184 200.615 165.166 201.827 165.166H219.377C220.588 165.166 221.57 164.184 221.57 162.972C221.57 161.76 220.588 160.778 219.377 160.778Z" fill="#FF9C39"/>
<path d="M245.701 160.778H228.151C226.939 160.778 225.957 161.76 225.957 162.972C225.957 164.184 226.939 165.166 228.151 165.166H245.701C246.912 165.166 247.895 164.184 247.895 162.972C247.895 161.76 246.912 160.778 245.701 160.778Z" fill="#FF9C39"/>
<path d="M272.027 160.778H254.477C253.265 160.778 252.283 161.76 252.283 162.972C252.283 164.184 253.265 165.166 254.477 165.166H272.027C273.239 165.166 274.221 164.184 274.221 162.972C274.221 161.76 273.239 160.778 272.027 160.778Z" fill="#FF9C39" fill-opacity="0.1"/>
<path d="M256.671 152.004H208.409C207.197 152.004 206.215 152.986 206.215 154.198C206.215 155.409 207.197 156.392 208.409 156.392H256.671C257.883 156.392 258.865 155.409 258.865 154.198C258.865 152.986 257.883 152.004 256.671 152.004Z" fill="#FF9C39" fill-opacity="0.1"/>
<path d="M233.636 143.228H196.342C195.131 143.228 194.148 144.21 194.148 145.422C194.148 146.633 195.131 147.616 196.342 147.616H233.636C234.848 147.616 235.83 146.633 235.83 145.422C235.83 144.21 234.848 143.228 233.636 143.228Z" fill="#FF9C39" fill-opacity="0.1"/>
<path d="M231.443 125.679H194.149C192.937 125.679 191.955 126.661 191.955 127.872C191.955 129.084 192.937 130.066 194.149 130.066H231.443C232.654 130.066 233.636 129.084 233.636 127.872C233.636 126.661 232.654 125.679 231.443 125.679Z" fill="#FF9C39" fill-opacity="0.1"/>
<path d="M172.212 125.679H134.918C133.707 125.679 132.725 126.661 132.725 127.872C132.725 129.084 133.707 130.066 134.918 130.066H172.212C173.424 130.066 174.406 129.084 174.406 127.872C174.406 126.661 173.424 125.679 172.212 125.679Z" fill="#FF9C39" fill-opacity="0.1"/>
<path d="M199.632 116.904H162.338C161.127 116.904 160.145 117.886 160.145 119.098C160.145 120.309 161.127 121.292 162.338 121.292H199.632C200.844 121.292 201.826 120.309 201.826 119.098C201.826 117.886 200.844 116.904 199.632 116.904Z" fill="#FF9C39" fill-opacity="0.1"/>
<path d="M212.796 116.904H208.409C207.197 116.904 206.215 117.886 206.215 119.098C206.215 120.309 207.197 121.292 208.409 121.292H212.796C214.008 121.292 214.99 120.309 214.99 119.098C214.99 117.886 214.008 116.904 212.796 116.904Z" fill="#FF9C39"/>
<path d="M247.896 169.553H217.184C215.972 169.553 214.99 170.535 214.99 171.747C214.99 172.959 215.972 173.941 217.184 173.941H247.896C249.108 173.941 250.09 172.959 250.09 171.747C250.09 170.535 249.108 169.553 247.896 169.553Z" fill="#FF9C39"/>
<path d="M95.4305 116.904H71.2992C70.0876 116.904 69.1055 117.886 69.1055 119.098C69.1055 120.309 70.0876 121.292 71.2992 121.292H95.4305C96.642 121.292 97.6242 120.309 97.6242 119.098C97.6242 117.886 96.642 116.904 95.4305 116.904Z" fill="#F2EEFF"/>
<path d="M95.4297 99.3538H70.2016C68.99 99.3538 68.0078 100.336 68.0078 101.548C68.0078 102.759 68.99 103.741 70.2016 103.741H95.4297C96.6413 103.741 97.6234 102.759 97.6234 101.548C97.6234 100.336 96.6413 99.3538 95.4297 99.3538Z" fill="#F2EEFF"/>
<path d="M95.4309 125.679H85.559C84.3474 125.679 83.3652 126.661 83.3652 127.872C83.3652 129.084 84.3474 130.066 85.559 130.066H95.4309C96.6424 130.066 97.6246 129.084 97.6246 127.872C97.6246 126.661 96.6424 125.679 95.4309 125.679Z" fill="#F2EEFF"/>
<path d="M83.3652 108.128H69.1059C67.8943 108.128 66.9121 109.111 66.9121 110.322C66.9121 111.534 67.8943 112.516 69.1059 112.516H83.3652C84.5768 112.516 85.559 111.534 85.559 110.322C85.559 109.111 84.5768 108.128 83.3652 108.128Z" fill="#FF9C39" fill-opacity="0.1"/>
<path d="M95.4316 108.128H92.141C90.9294 108.128 89.9473 109.111 89.9473 110.322C89.9473 111.534 90.9294 112.516 92.141 112.516H95.4316C96.6432 112.516 97.6254 111.534 97.6254 110.322C97.6254 109.111 96.6432 108.128 95.4316 108.128Z" fill="#FF9C39" fill-opacity="0.1"/>
<path d="M83.3633 134.454H80.0727C78.8611 134.454 77.8789 135.436 77.8789 136.647C77.8789 137.859 78.8611 138.841 80.0727 138.841H83.3633C84.5749 138.841 85.557 137.859 85.557 136.647C85.557 135.436 84.5749 134.454 83.3633 134.454Z" fill="#FF9C39" fill-opacity="0.1"/>
<path d="M95.4316 134.454H92.141C90.9294 134.454 89.9473 135.436 89.9473 136.647C89.9473 137.859 90.9294 138.841 92.141 138.841H95.4316C96.6432 138.841 97.6254 137.859 97.6254 136.647C97.6254 135.436 96.6432 134.454 95.4316 134.454Z" fill="#FF9C39" fill-opacity="0.1"/>
<path d="M95.4301 143.228H73.4926C72.281 143.228 71.2988 144.21 71.2988 145.422C71.2988 146.633 72.281 147.616 73.4926 147.616H95.4301C96.6417 147.616 97.6238 146.633 97.6238 145.422C97.6238 144.21 96.6417 143.228 95.4301 143.228Z" fill="#F2EEFF"/>
<path d="M95.4301 94.9668H73.4926C72.281 94.9668 71.2988 93.9846 71.2988 92.773C71.2988 91.5615 72.281 90.5793 73.4926 90.5793H95.4301C96.6417 90.5793 97.6238 91.5615 97.6238 92.773C97.6238 93.9846 96.6417 94.9668 95.4301 94.9668Z" fill="#F2EEFF"/>
<path d="M95.4297 152.004H64.7172C63.5056 152.004 62.5234 152.986 62.5234 154.198C62.5234 155.409 63.5056 156.392 64.7172 156.392H95.4297C96.6413 156.392 97.6234 155.409 97.6234 154.198C97.6234 152.986 96.6413 152.004 95.4297 152.004Z" fill="#F2EEFF"/>
<path d="M95.4297 86.1907H64.7172C63.5056 86.1907 62.5234 85.2085 62.5234 83.9969C62.5234 82.7853 63.5056 81.8032 64.7172 81.8032H95.4297C96.6413 81.8032 97.6234 82.7853 97.6234 83.9969C97.6234 85.2085 96.6413 86.1907 95.4297 86.1907Z" fill="#F2EEFF"/>
<path d="M74.5902 160.778H69.1059C67.8943 160.778 66.9121 161.76 66.9121 162.972C66.9121 164.184 67.8943 165.166 69.1059 165.166H74.5902C75.8018 165.166 76.784 164.184 76.784 162.972C76.784 161.76 75.8018 160.778 74.5902 160.778Z" fill="#FF9C39" fill-opacity="0.1"/>
<path d="M95.4312 160.778H83.3656C82.1541 160.778 81.1719 161.76 81.1719 162.972C81.1719 164.184 82.1541 165.166 83.3656 165.166H95.4312C96.6428 165.166 97.625 164.184 97.625 162.972C97.625 161.76 96.6428 160.778 95.4312 160.778Z" fill="#FF9C39" fill-opacity="0.1"/>
<path d="M74.5902 77.416H69.1059C67.8943 77.416 66.9121 76.4338 66.9121 75.2223C66.9121 74.0107 67.8943 73.0285 69.1059 73.0285H74.5902C75.8018 73.0285 76.784 74.0107 76.784 75.2223C76.784 76.4338 75.8018 77.416 74.5902 77.416Z" fill="#FF9C39" fill-opacity="0.1"/>
<path d="M95.4312 77.416H83.3656C82.1541 77.416 81.1719 76.4338 81.1719 75.2223C81.1719 74.0107 82.1541 73.0285 83.3656 73.0285H95.4312C96.6428 73.0285 97.625 74.0107 97.625 75.2223C97.625 76.4338 96.6428 77.416 95.4312 77.416Z" fill="#FF9C39" fill-opacity="0.1"/>
<path d="M95.4289 169.553H74.5883C73.3767 169.553 72.3945 170.535 72.3945 171.747C72.3945 172.959 73.3767 173.941 74.5883 173.941H95.4289C96.6405 173.941 97.6227 172.959 97.6227 171.747C97.6227 170.535 96.6405 169.553 95.4289 169.553Z" fill="#F2EEFF"/>
<path d="M95.4289 68.6416H74.5883C73.3767 68.6416 72.3945 67.6594 72.3945 66.4479C72.3945 65.2363 73.3767 64.2541 74.5883 64.2541H95.4289C96.6405 64.2541 97.6227 65.2363 97.6227 66.4479C97.6227 67.6594 96.6405 68.6416 95.4289 68.6416Z" fill="#F2EEFF"/>
<path d="M78.9766 178.329H64.7172C63.5056 178.329 62.5234 179.311 62.5234 180.523C62.5234 181.734 63.5056 182.717 64.7172 182.717H78.9766C80.1881 182.717 81.1703 181.734 81.1703 180.523C81.1703 179.311 80.1881 178.329 78.9766 178.329Z" fill="#FF9C39" fill-opacity="0.1"/>
<path d="M95.4305 178.329H87.7523C86.5408 178.329 85.5586 179.311 85.5586 180.523C85.5586 181.734 86.5408 182.717 87.7523 182.717H95.4305C96.642 182.717 97.6242 181.734 97.6242 180.523C97.6242 179.311 96.642 178.329 95.4305 178.329Z" fill="#FF9C39" fill-opacity="0.1"/>
<path d="M213.894 81.8037H198.538C197.326 81.8037 196.344 82.7859 196.344 83.9975C196.344 85.209 197.326 86.1912 198.538 86.1912H213.894C215.105 86.1912 216.088 85.209 216.088 83.9975C216.088 82.7859 215.105 81.8037 213.894 81.8037Z" fill="#FF9C39" fill-opacity="0.1"/>
<path d="M236.929 81.8037H223.766C222.554 81.8037 221.572 82.7859 221.572 83.9975C221.572 85.209 222.554 86.1912 223.766 86.1912H236.929C238.14 86.1912 239.122 85.209 239.122 83.9975C239.122 82.7859 238.14 81.8037 236.929 81.8037Z" fill="#FF9C39"/>
<path d="M277.513 99.3538H264.35C263.138 99.3538 262.156 100.336 262.156 101.548C262.156 102.759 263.138 103.741 264.35 103.741H277.513C278.724 103.741 279.706 102.759 279.706 101.548C279.706 100.336 278.724 99.3538 277.513 99.3538Z" fill="#FF9C39"/>
<path d="M182.082 73.0288H145.885C144.674 73.0288 143.691 74.011 143.691 75.2226C143.691 76.4341 144.674 77.4163 145.885 77.4163H182.082C183.294 77.4163 184.276 76.4341 184.276 75.2226C184.276 74.011 183.294 73.0288 182.082 73.0288Z" fill="#FF9C39"/>
<path d="M264.349 90.5793H191.955C190.744 90.5793 189.762 91.5615 189.762 92.7731C189.762 93.9847 190.744 94.9668 191.955 94.9668H264.349C265.561 94.9668 266.543 93.9847 266.543 92.7731C266.543 91.5615 265.561 90.5793 264.349 90.5793Z" fill="#FF9C39"/>
<path d="M251.188 108.128H214.991C213.779 108.128 212.797 109.111 212.797 110.322C212.797 111.534 213.779 112.516 214.991 112.516H251.188C252.399 112.516 253.381 111.534 253.381 110.322C253.381 109.111 252.399 108.128 251.188 108.128Z" fill="#FF9C39"/>
<path d="M156.865 108.084L148.09 108.043C146.879 108.037 145.892 109.014 145.886 110.226C145.88 111.438 146.858 112.424 148.069 112.43L156.844 112.472C158.056 112.478 159.043 111.5 159.048 110.289C159.054 109.077 158.077 108.09 156.865 108.084Z" fill="#FF9C39" fill-opacity="0.1"/>
<path d="M189.785 108.084L181.01 108.043C179.799 108.037 178.812 109.014 178.806 110.226C178.8 111.438 179.778 112.424 180.989 112.43L189.764 112.472C190.976 112.478 191.963 111.5 191.968 110.289C191.974 109.077 190.997 108.09 189.785 108.084Z" fill="#FF9C39" fill-opacity="0.1"/>
<path d="M256.67 73.0288H195.245C194.033 73.0288 193.051 74.011 193.051 75.2226C193.051 76.4341 194.033 77.4163 195.245 77.4163H256.67C257.881 77.4163 258.863 76.4341 258.863 75.2226C258.863 74.011 257.881 73.0288 256.67 73.0288Z" fill="#FF9C39" fill-opacity="0.35"/>
<path d="M243.508 99.3538H133.821C132.609 99.3538 131.627 100.336 131.627 101.548C131.627 102.759 132.609 103.741 133.821 103.741H243.508C244.72 103.741 245.702 102.759 245.702 101.548C245.702 100.336 244.72 99.3538 243.508 99.3538Z" fill="#FF9C39" fill-opacity="0.35"/>
<path d="M49.3602 26.9596C51.7833 26.9596 53.7477 24.9952 53.7477 22.5721C53.7477 20.1489 51.7833 18.1846 49.3602 18.1846C46.937 18.1846 44.9727 20.1489 44.9727 22.5721C44.9727 24.9952 46.937 26.9596 49.3602 26.9596Z" fill="#FF9C39"/>
<path d="M62.5242 26.9596C64.9474 26.9596 66.9117 24.9952 66.9117 22.5721C66.9117 20.1489 64.9474 18.1846 62.5242 18.1846C60.1011 18.1846 58.1367 20.1489 58.1367 22.5721C58.1367 24.9952 60.1011 26.9596 62.5242 26.9596Z" fill="#FF9C39"/>
<path d="M75.6863 26.9596C78.1095 26.9596 80.0738 24.9952 80.0738 22.5721C80.0738 20.1489 78.1095 18.1846 75.6863 18.1846C73.2632 18.1846 71.2988 20.1489 71.2988 22.5721C71.2988 24.9952 73.2632 26.9596 75.6863 26.9596Z" fill="#FF9C39"/>
<path d="M301.644 18.1846H102.012C99.5894 18.1846 97.625 20.1489 97.625 22.5721C97.625 24.9952 99.5894 26.9596 102.012 26.9596H301.644C304.067 26.9596 306.031 24.9952 306.031 22.5721C306.031 20.1489 304.067 18.1846 301.644 18.1846Z" fill="#F9F8FF"/>
</g>
<rect x="27.9723" y="1.18345" width="295.059" height="218.278" rx="17.0016" stroke="#F7F5FF" stroke-width="1.09688"/>
<rect x="289.578" y="18.1851" width="61.425" height="61.425" rx="17.55" fill="#FF9C39"/>
<path d="M312.062 52.7362L308.223 48.8972L312.062 45.0581" stroke="white" stroke-width="2.19375" stroke-linecap="round" stroke-linejoin="round"/>
<path d="M316.451 56.0272L324.129 41.7678" stroke="white" stroke-width="2.19375" stroke-linecap="round" stroke-linejoin="round"/>
<path d="M328.516 45.0581L332.355 48.8972L328.516 52.7362" stroke="white" stroke-width="2.19375" stroke-linecap="round" stroke-linejoin="round"/>
<rect x="291.223" y="19.8304" width="58.1344" height="58.1344" rx="15.9047" stroke="#F7F5FF" stroke-width="3.29063"/>
<rect x="0.00195312" y="116.905" width="61.425" height="61.425" rx="17.55" fill="#FF9C39"/>
<path d="M30.716 144.327L37.2973 150.908H24.1348M30.716 144.327H25.2316C24.3245 144.327 24.1348 144.517 24.1348 145.424V150.908M30.716 144.327L24.1348 137.746H36.2004C37.1075 137.746 37.2973 137.936 37.2973 138.843V143.23C37.2973 144.137 37.1075 144.327 36.2004 144.327H30.716ZM24.1348 150.908L30.716 157.49V150.908H24.1348Z" stroke="white" stroke-width="1.64531" stroke-linecap="round" stroke-linejoin="round"/>
<rect x="1.64727" y="118.55" width="58.1344" height="58.1344" rx="15.9047" stroke="#F7F5FF" stroke-width="3.29063"/>
<defs>
<clipPath id="clip0_63_7">
<rect width="261.056" height="184.275" fill="white" transform="translate(44.9727 18.1846)"/>
</clipPath>
</defs>
</svg>
