<svg width="347" height="307" viewBox="0 0 347 307" fill="none" xmlns="http://www.w3.org/2000/svg">
<rect width="296.156" height="219.375" transform="translate(7.17773 44.3127)" fill="white"/>
<rect x="8.27461" y="45.4096" width="293.962" height="217.181" stroke="#FF9C39" stroke-width="2.19375"/>
<g clip-path="url(#clip0_46_3004)">
<path d="M1.14355 257.655H13.2092V269.721H1.14355V257.655ZM297.3 257.655H309.365V269.721H297.3V257.655ZM1.14355 38.2803H13.2092V50.3459H1.14355V38.2803ZM297.3 38.2803H309.365V50.3459H297.3V38.2803Z" fill="#F7F5FF" stroke="#FF9C39" stroke-width="1.09688"/>
<path d="M29.1141 70.6378C31.5372 70.6378 33.5016 68.6734 33.5016 66.2503C33.5016 63.8271 31.5372 61.8628 29.1141 61.8628C26.6909 61.8628 24.7266 63.8271 24.7266 66.2503C24.7266 68.6734 26.6909 70.6378 29.1141 70.6378Z" fill="#FF9C39"/>
<path d="M42.2771 70.6378C44.7003 70.6378 46.6646 68.6734 46.6646 66.2503C46.6646 63.8271 44.7003 61.8628 42.2771 61.8628C39.854 61.8628 37.8896 63.8271 37.8896 66.2503C37.8896 68.6734 39.854 70.6378 42.2771 70.6378Z" fill="#FF9C39"/>
<path d="M55.4383 70.6378C57.8614 70.6378 59.8258 68.6734 59.8258 66.2503C59.8258 63.8271 57.8614 61.8628 55.4383 61.8628C53.0151 61.8628 51.0508 63.8271 51.0508 66.2503C51.0508 68.6734 53.0151 70.6378 55.4383 70.6378Z" fill="#FF9C39"/>
<path d="M281.397 61.8628H81.7654C79.3423 61.8628 77.3779 63.8271 77.3779 66.2503C77.3779 68.6734 79.3423 70.6378 81.7654 70.6378H281.397C283.82 70.6378 285.784 68.6734 285.784 66.2503C285.784 63.8271 283.82 61.8628 281.397 61.8628Z" fill="#F9F8FF"/>
<path d="M277.008 101.351H155.254C150.408 101.351 146.479 105.28 146.479 110.126V145.226C146.479 150.072 150.408 154.001 155.254 154.001H277.008C281.854 154.001 285.783 150.072 285.783 145.226V110.126C285.783 105.28 281.854 101.351 277.008 101.351Z" fill="white"/>
<path d="M260.555 110.126H159.642C157.219 110.126 155.255 112.09 155.255 114.513C155.255 116.936 157.219 118.901 159.642 118.901H260.555C262.978 118.901 264.942 116.936 264.942 114.513C264.942 112.09 262.978 110.126 260.555 110.126Z" fill="#F9F8FF"/>
<path d="M273.945 113.369L275.136 114.56C275.827 115.251 275.338 116.433 274.36 116.433H271.978C271.001 116.433 270.511 115.251 271.202 114.56L272.394 113.369C272.599 113.163 272.878 113.048 273.169 113.048C273.46 113.048 273.739 113.163 273.945 113.369Z" fill="#FF9C39"/>
<path d="M237.521 123.289H159.642C157.219 123.289 155.255 125.253 155.255 127.677C155.255 130.1 157.219 132.064 159.642 132.064H237.521C239.944 132.064 241.908 130.1 241.908 127.677C241.908 125.253 239.944 123.289 237.521 123.289Z" fill="#F9F8FF"/>
<path d="M250.908 126.532L252.1 127.723C252.791 128.414 252.302 129.595 251.324 129.595H248.942C247.964 129.595 247.475 128.414 248.166 127.723L249.358 126.532C249.563 126.326 249.842 126.211 250.133 126.211C250.424 126.211 250.703 126.326 250.908 126.532Z" fill="white"/>
<path d="M243.005 136.451H159.642C157.219 136.451 155.255 138.415 155.255 140.838C155.255 143.261 157.219 145.226 159.642 145.226H243.005C245.428 145.226 247.392 143.261 247.392 140.838C247.392 138.415 245.428 136.451 243.005 136.451Z" fill="#F9F8FF"/>
<path d="M256.392 139.694L257.583 140.885C258.274 141.576 257.785 142.758 256.808 142.758H254.425C253.448 142.758 252.959 141.576 253.65 140.885L254.841 139.694C255.047 139.488 255.326 139.373 255.616 139.373C255.907 139.373 256.186 139.488 256.392 139.694Z" fill="white"/>
<path d="M277.008 158.389H155.254C150.408 158.389 146.479 162.317 146.479 167.164V175.939C146.479 180.785 150.408 184.714 155.254 184.714H277.008C281.854 184.714 285.783 180.785 285.783 175.939V167.164C285.783 162.317 281.854 158.389 277.008 158.389Z" fill="white"/>
<path d="M260.555 167.163H159.642C157.219 167.163 155.255 169.128 155.255 171.551C155.255 173.974 157.219 175.938 159.642 175.938H260.555C262.978 175.938 264.942 173.974 264.942 171.551C264.942 169.128 262.978 167.163 260.555 167.163Z" fill="#F9F8FF"/>
<path d="M272.394 172.695L271.202 171.504C270.511 170.813 271.001 169.632 271.978 169.632H274.36C275.338 169.632 275.827 170.813 275.136 171.504L273.945 172.695C273.739 172.901 273.46 173.016 273.169 173.016C272.878 173.016 272.599 172.901 272.394 172.695Z" fill="#FF9C39"/>
<path d="M277.008 189.1H155.254C150.408 189.1 146.479 193.028 146.479 197.875V206.65C146.479 211.496 150.408 215.425 155.254 215.425H277.008C281.854 215.425 285.783 211.496 285.783 206.65V197.875C285.783 193.028 281.854 189.1 277.008 189.1Z" fill="white"/>
<path d="M260.555 197.874H159.642C157.219 197.874 155.255 199.839 155.255 202.262C155.255 204.685 157.219 206.649 159.642 206.649H260.555C262.978 206.649 264.942 204.685 264.942 202.262C264.942 199.839 262.978 197.874 260.555 197.874Z" fill="#F9F8FF"/>
<path d="M272.394 203.406L271.202 202.215C270.511 201.524 271.001 200.343 271.978 200.343H274.36C275.338 200.343 275.827 201.524 275.136 202.215L273.945 203.406C273.739 203.612 273.46 203.727 273.169 203.727C272.878 203.727 272.599 203.612 272.394 203.406Z" fill="#FF9C39"/>
<path d="M131.123 110.126H29.1141C26.6909 110.126 24.7266 112.09 24.7266 114.513C24.7266 116.936 26.6909 118.901 29.1141 118.901H131.123C133.547 118.901 135.511 116.936 135.511 114.513C135.511 112.09 133.547 110.126 131.123 110.126Z" fill="#F9F8FF"/>
<path d="M120.155 123.288H29.1141C26.6909 123.288 24.7266 125.252 24.7266 127.675C24.7266 130.098 26.6909 132.063 29.1141 132.063H120.155C122.578 132.063 124.542 130.098 124.542 127.675C124.542 125.252 122.578 123.288 120.155 123.288Z" fill="#F9F8FF"/>
<path d="M100.411 136.451H29.1141C26.6909 136.451 24.7266 138.415 24.7266 140.838C24.7266 143.261 26.6909 145.226 29.1141 145.226H100.411C102.834 145.226 104.798 143.261 104.798 140.838C104.798 138.415 102.834 136.451 100.411 136.451Z" fill="#F9F8FF"/>
<path d="M55.4391 154H29.1141C26.6909 154 24.7266 155.965 24.7266 158.388C24.7266 160.811 26.6909 162.775 29.1141 162.775H55.4391C57.8622 162.775 59.8266 160.811 59.8266 158.388C59.8266 155.965 57.8622 154 55.4391 154Z" fill="#FF9C39" fill-opacity="0.35"/>
</g>
<rect x="158.545" y="0.438477" width="61.425" height="61.425" rx="17.55" fill="#FF9C39"/>
<path d="M185.605 27.4945C184.646 27.4779 183.732 27.0854 183.06 26.4015C182.388 25.7176 182.011 24.797 182.011 23.8381C182.011 22.8792 182.388 21.9586 183.06 21.2747C183.732 20.5908 184.646 20.1982 185.605 20.1816H189.262V27.4945M185.605 27.4945H189.262M185.605 27.4945C184.636 27.4945 183.706 27.8797 183.02 28.5653C182.334 29.2509 181.949 30.1808 181.949 31.1504C181.949 32.12 182.334 33.0499 183.02 33.7355C183.706 34.4211 184.636 34.8063 185.605 34.8063H189.262M189.262 27.4945V34.8063M189.262 34.8063L185.606 34.8074C184.883 34.8074 184.176 35.0218 183.575 35.4235C182.974 35.8252 182.505 36.3962 182.229 37.0642C181.952 37.7322 181.879 38.4673 182.021 39.1765C182.162 39.8857 182.51 40.5371 183.021 41.0484C183.532 41.5596 184.184 41.9078 184.893 42.0489C185.602 42.19 186.337 42.1176 187.005 41.8409C187.673 41.5641 188.244 41.0956 188.646 40.4944C189.048 39.8931 189.262 39.1863 189.262 38.4633V34.8063ZM196.575 31.1504C196.575 32.12 196.19 33.0499 195.504 33.7355C194.819 34.4211 193.889 34.8063 192.919 34.8063C191.949 34.8063 191.02 34.4211 190.334 33.7355C189.648 33.0499 189.263 32.12 189.263 31.1504C189.263 30.1808 189.648 29.2509 190.334 28.5653C191.02 27.8797 191.949 27.4945 192.919 27.4945C193.889 27.4945 194.819 27.8797 195.504 28.5653C196.19 29.2509 196.575 30.1808 196.575 31.1504Z" stroke="white" stroke-width="1.64531"/>
<path d="M189.26 20.1816H192.916C193.885 20.1816 194.815 20.5669 195.501 21.2526C196.187 21.9383 196.572 22.8683 196.572 23.8381C196.572 24.8078 196.187 25.7378 195.501 26.4236C194.815 27.1093 193.885 27.4945 192.916 27.4945H189.26V20.1816Z" stroke="white" stroke-width="1.64531"/>
<rect x="160.19" y="2.08355" width="58.1344" height="58.1344" rx="15.9047" stroke="#F7F5FF" stroke-width="3.29063"/>
<path d="M306.06 262.41L334.444 271.869C334.444 271.869 334.444 271.869 334.444 271.869C337.056 272.742 337.206 276.378 334.677 277.462L334.67 277.465L334.663 277.468L323.058 282.639L322.674 282.81L322.503 283.194L317.332 294.799L317.329 294.806L317.326 294.814C316.242 297.343 312.606 297.192 311.736 294.58L302.274 266.195C301.494 263.857 303.719 261.63 306.06 262.41Z" fill="#FF9C39"/>
<path d="M334.444 271.869L306.06 262.41C303.719 261.63 301.494 263.857 302.274 266.195L311.736 294.58C312.606 297.192 316.242 297.343 317.326 294.814L317.329 294.806L317.332 294.799L322.503 283.194L322.674 282.81L323.058 282.639L334.663 277.468L334.67 277.465L334.677 277.462C337.206 276.378 337.056 272.742 334.444 271.869ZM334.444 271.869C334.444 271.869 334.444 271.869 334.444 271.869Z" stroke="white" stroke-width="2.19375"/>
<defs>
<clipPath id="clip0_46_3004">
<rect width="309.319" height="232.537" fill="white" transform="translate(0.595703 37.7322)"/>
</clipPath>
</defs>
</svg>
