<svg width="334" height="226" viewBox="0 0 334 226" fill="none" xmlns="http://www.w3.org/2000/svg">
<rect x="0.662109" y="0.248047" width="304.64" height="225.659" rx="18.0527" fill="white"/>
<rect x="1.22626" y="0.811951" width="303.512" height="224.531" rx="17.4886" stroke="#F7F5FF" stroke-width="1.1283"/>
<g clip-path="url(#clip0_46_3047)">
<g clip-path="url(#clip1_46_3047)">
<path d="M27.7432 207.854C22.7584 207.854 18.7168 207.854 18.7168 207.854V45.3799C18.7168 45.3799 22.7584 45.3799 27.7432 45.3799H278.225C283.21 45.3799 287.251 45.3799 287.251 45.3799V207.854C287.251 207.854 283.21 207.854 278.225 207.854H27.7432Z" fill="#FCFBFF"/>
<path d="M57.0828 67.9456C55.836 67.9456 54.8262 67.9456 54.8262 67.9456V63.4324C54.8262 63.4324 55.836 63.4324 57.0828 63.4324H166.527C167.774 63.4324 168.784 63.4324 168.784 63.4324V67.9456C168.784 67.9456 167.774 67.9456 166.527 67.9456H57.0828Z" fill="#FF9C39" fill-opacity="0.35"/>
<path d="M57.0828 85.9995C55.836 85.9995 54.8262 85.9995 54.8262 85.9995V81.4863C54.8262 81.4863 55.836 81.4863 57.0828 81.4863H134.935C136.182 81.4863 137.192 81.4863 137.192 81.4863V85.9995C137.192 85.9995 136.182 85.9995 134.935 85.9995H57.0828Z" fill="#FF9C39" fill-opacity="0.35"/>
<path d="M269.2 189.802H41.2847C38.7923 189.802 36.7715 187.781 36.7715 185.288V63.4324M81.9033 189.802V161.594M127.035 189.802V131.13M172.167 189.802V130.002M217.299 185.852V96.7171" stroke="#F2EEFF" stroke-width="5.64148" stroke-linecap="round" stroke-linejoin="round"/>
<path d="M62.3149 164.859L68.718 172.628C69.492 173.568 70.8719 173.724 71.8366 172.981L129.75 128.375C131.491 127.034 133.946 127.142 135.563 128.631L156.885 148.284C158.495 149.768 160.938 149.882 162.679 148.555L220.099 104.791C221.057 104.061 222.42 104.212 223.195 105.134L230.477 113.803C231.647 115.195 233.9 114.702 234.381 112.948L244.057 77.6492C244.26 76.9079 244.073 76.1147 243.559 75.5426C243.045 74.9717 242.276 74.7009 241.518 74.825L207.212 80.4394C205.5 80.7193 204.732 82.7457 205.826 84.0906L211.886 91.5351C212.271 92.0079 212.448 92.6149 212.378 93.2197C212.308 93.8244 211.996 94.3762 211.514 94.7474L164.322 131.127C162.591 132.462 160.153 132.364 158.534 130.895L135.565 110.05C133.945 108.58 131.504 108.483 129.772 109.82L62.6782 161.637C62.1942 162.011 61.8828 162.564 61.8151 163.172C61.7463 163.779 61.9268 164.387 62.3149 164.859Z" fill="#FF9C39"/>
<path d="M18.7168 22.814C18.7168 20.3216 20.7376 18.3008 23.23 18.3008C25.7224 18.3008 27.7432 20.3216 27.7432 22.814C27.7432 25.3064 25.7224 27.3271 23.23 27.3271C20.7376 27.3271 18.7168 25.3064 18.7168 22.814Z" fill="#FF9C39"/>
<path d="M32.2559 22.814C32.2559 20.3216 34.2766 18.3008 36.769 18.3008C39.2614 18.3008 41.2822 20.3216 41.2822 22.814C41.2822 25.3064 39.2614 27.3271 36.769 27.3271C34.2766 27.3271 32.2559 25.3064 32.2559 22.814Z" fill="#FF9C39"/>
<path d="M45.7969 22.814C45.7969 20.3216 47.8177 18.3008 50.3101 18.3008C52.8025 18.3008 54.8232 20.3216 54.8232 22.814C54.8232 25.3064 52.8025 27.3271 50.3101 27.3271C47.8177 27.3271 45.7969 25.3064 45.7969 22.814Z" fill="#FF9C39"/>
<path d="M77.3882 27.3271C74.8958 27.3271 72.875 27.3271 72.875 27.3271V18.3008C72.875 18.3008 74.8958 18.3008 77.3882 18.3008H282.738C285.23 18.3008 287.251 18.3008 287.251 18.3008V27.3271C287.251 27.3271 285.23 27.3271 282.738 27.3271H77.3882Z" fill="#F9F8FF"/>
</g>
</g>
<rect x="270.324" y="106.307" width="63.1846" height="63.1846" rx="18.0527" fill="#FF9C39"/>
<path d="M308.686 136.77L311.333 134.343C311.825 133.892 312.071 133.666 312.071 133.385M312.071 133.385C312.071 133.104 311.825 132.879 311.333 132.427L308.686 130M312.071 133.385C291.762 133.385 291.762 148.053 291.762 148.053" stroke="white" stroke-width="1.69244" stroke-linecap="round" stroke-linejoin="round"/>
<path d="M294.582 133.385C296.14 133.385 297.403 132.122 297.403 130.564C297.403 129.006 296.14 127.743 294.582 127.743C293.025 127.743 291.762 129.006 291.762 130.564C291.762 132.122 293.025 133.385 294.582 133.385Z" stroke="white" stroke-width="1.69244" stroke-linecap="round" stroke-linejoin="round"/>
<path d="M303.047 148.052L308.688 142.411M308.688 148.052L303.047 142.411" stroke="white" stroke-width="1.69244" stroke-linecap="round" stroke-linejoin="round"/>
<rect x="272.017" y="108" width="59.7997" height="59.7997" rx="16.3603" stroke="#F7F5FF" stroke-width="3.38489"/>
<defs>
<clipPath id="clip0_46_3047">
<rect width="268.534" height="189.554" fill="white" transform="translate(18.7168 18.3008)"/>
</clipPath>
<clipPath id="clip1_46_3047">
<rect width="268.534" height="189.554" fill="white" transform="translate(18.7168 18.3008)"/>
</clipPath>
</defs>
</svg>
