<svg width="671" height="208" viewBox="0 0 671 208" fill="none" xmlns="http://www.w3.org/2000/svg">
<path d="M100.509 264.85C86.5765 264.85 74.8439 262.405 65.3111 257.517C56.0228 252.384 49.0566 245.051 44.4124 235.518C39.7683 225.741 37.4462 213.886 37.4462 199.954V106.459H12.881C8.72574 106.459 5.54816 105.482 3.3483 103.526C1.14844 101.326 0.048506 98.3933 0.048506 94.7269C0.048506 91.0604 1.14844 88.2495 3.3483 86.294C5.54816 84.3386 8.72574 83.3609 12.881 83.3609H37.4462V41.1969C37.4462 36.3083 38.7905 32.6418 41.4793 30.1975C44.168 27.5088 47.8344 26.1645 52.4786 26.1645C57.1227 26.1645 60.667 27.5088 63.1113 30.1975C65.8 32.6418 67.1443 36.3083 67.1443 41.1969V83.3609H113.341C117.497 83.3609 120.674 84.3386 122.874 86.294C125.074 88.2495 126.174 91.0604 126.174 94.7269C126.174 98.3933 125.074 101.326 122.874 103.526C120.674 105.482 117.497 106.459 113.341 106.459H67.1443V197.02C67.1443 210.953 70.0775 221.586 75.9438 228.919C81.8101 236.007 91.3428 239.551 104.542 239.551C109.186 239.551 113.097 239.062 116.275 238.085C119.697 237.107 122.508 236.618 124.707 236.618C126.907 236.374 128.74 237.107 130.207 238.818C131.674 240.529 132.407 243.462 132.407 247.617C132.407 250.55 131.796 253.239 130.574 255.684C129.596 258.128 127.763 259.839 125.074 260.817C122.141 261.794 118.23 262.65 113.341 263.383C108.697 264.361 104.42 264.85 100.509 264.85ZM226.412 264.85C209.057 264.85 194.025 261.061 181.315 253.484C168.604 245.906 158.705 235.274 151.617 221.586C144.773 207.653 141.351 191.276 141.351 172.455C141.351 158.278 143.306 145.568 147.217 134.324C151.128 122.836 156.872 113.059 164.449 104.993C172.026 96.9267 180.948 90.816 191.214 86.6607C201.725 82.261 213.457 80.0611 226.412 80.0611C243.766 80.0611 258.799 83.8498 271.509 91.4271C284.219 99.0044 293.997 109.759 300.841 123.692C307.929 137.38 311.473 153.634 311.473 172.455C311.473 186.632 309.518 199.343 305.607 210.586C301.696 221.83 295.952 231.607 288.375 239.918C280.797 247.984 271.754 254.217 261.243 258.617C250.977 262.772 239.367 264.85 226.412 264.85ZM226.412 241.018C237.411 241.018 247.066 238.329 255.377 232.952C263.687 227.574 270.043 219.752 274.442 209.486C279.086 199.22 281.409 186.877 281.409 172.455C281.409 150.212 276.398 133.224 266.376 121.492C256.599 109.759 243.278 103.893 226.412 103.893C215.168 103.893 205.391 106.582 197.08 111.959C189.014 117.092 182.659 124.792 178.015 135.058C173.615 145.079 171.415 157.545 171.415 172.455C171.415 194.454 176.426 211.442 186.448 223.419C196.469 235.151 209.791 241.018 226.412 241.018ZM367.691 264.116C362.802 264.116 359.136 262.772 356.692 260.083C354.247 257.395 353.025 253.606 353.025 248.717V15.5318C353.025 10.6432 354.247 6.97676 356.692 4.53247C359.136 1.84375 362.802 0.499394 367.691 0.499394C372.335 0.499394 376.002 1.84375 378.69 4.53247C381.379 6.97676 382.723 10.6432 382.723 15.5318V162.556H383.457L458.619 90.6938C462.041 87.5162 464.974 85.0719 467.418 83.3609C470.107 81.6499 473.651 80.7944 478.051 80.7944C481.962 80.7944 485.017 81.8943 487.217 84.0942C489.417 86.0496 490.395 88.6161 490.15 91.7937C490.15 94.7269 488.684 97.9044 485.75 101.326L405.822 177.222V161.089L492.717 242.851C496.139 246.273 497.85 249.573 497.85 252.75C497.85 255.928 496.627 258.617 494.183 260.817C491.983 263.016 489.05 264.116 485.384 264.116C480.984 264.116 477.44 263.261 474.751 261.55C472.062 259.594 468.763 256.783 464.852 253.117L383.457 177.955H382.723V248.717C382.723 258.983 377.713 264.116 367.691 264.116ZM587.598 264.85C575.377 264.85 564.377 262.528 554.6 257.883C545.067 252.995 537.49 246.395 531.868 238.085C526.246 229.774 523.435 220.486 523.435 210.22C523.435 197.02 526.735 186.632 533.335 179.055C540.179 171.478 551.3 166.1 566.699 162.923C582.343 159.745 603.608 158.156 630.495 158.156H646.994V177.588H630.862C611.063 177.588 595.42 178.566 583.932 180.522C572.688 182.233 564.744 185.288 560.1 189.688C555.7 194.087 553.5 200.32 553.5 208.386C553.5 218.408 556.922 226.596 563.766 232.952C570.855 239.307 580.387 242.484 592.364 242.484C602.142 242.484 610.697 240.162 618.03 235.518C625.607 230.874 631.473 224.519 635.628 216.453C640.028 208.386 642.228 199.098 642.228 188.588V146.79C642.228 131.636 639.173 120.759 633.062 114.159C626.951 107.315 616.93 103.893 602.997 103.893C594.442 103.893 585.887 104.993 577.332 107.193C568.777 109.393 559.733 112.937 550.2 117.825C546.778 119.536 543.845 120.147 541.401 119.659C538.957 118.925 537.001 117.581 535.535 115.626C534.068 113.67 533.213 111.47 532.968 109.026C532.724 106.337 533.213 103.771 534.435 101.326C535.901 98.8822 538.101 96.9267 541.034 95.4601C551.789 90.0827 562.422 86.1718 572.932 83.7275C583.443 81.2832 593.464 80.0611 602.997 80.0611C618.396 80.0611 631.107 82.6276 641.128 87.7606C651.15 92.6492 658.605 100.227 663.493 110.493C668.382 120.514 670.826 133.469 670.826 149.357V248.717C670.826 253.606 669.604 257.395 667.16 260.083C664.96 262.772 661.66 264.116 657.26 264.116C652.616 264.116 649.072 262.772 646.628 260.083C644.183 257.395 642.961 253.606 642.961 248.717V220.119H646.261C644.306 229.407 640.517 237.351 634.895 243.951C629.518 250.55 622.796 255.684 614.73 259.35C606.664 263.016 597.62 264.85 587.598 264.85Z" fill="black"/>
</svg>
