<svg width="214" height="65" viewBox="0 0 214 65" fill="none" xmlns="http://www.w3.org/2000/svg">
<path d="M37.1543 6.24727C46.4766 5.83531 54.4404 13.161 54.4404 22.4924V32.2766C54.4404 47.1878 42.3526 59.2764 27.4414 59.2766C12.5301 59.2766 0.441406 47.1879 0.441406 32.2766V22.4992C0.441424 13.1659 8.41019 5.84403 17.7344 6.25802C20.9567 6.40108 24.1902 6.50055 27 6.50509C30.0717 6.51003 33.6344 6.40284 37.1543 6.24727ZM27.4404 22.4025C18.614 22.4027 11.459 28.8145 11.459 36.7238C11.459 44.6331 12.3638 42.9553 27.4404 42.9553C40.0735 42.9553 43.4228 44.6331 43.4229 36.7238C43.4229 28.8144 36.2671 22.4025 27.4404 22.4025Z" fill="#FF9C39"/>
<rect x="60.0645" y="0.889648" width="0.896541" height="63.728" fill="#FF9C39"/>
<path d="M80.1867 25.7537V7.82953H84.2135V25.7537H80.1867ZM68.5974 25.7537V7.82953H72.6242V25.7537H68.5974ZM71.9121 18.5103V14.9746H80.8987V18.5103H71.9121ZM96.1417 25.7537V21.776H95.4788V17.4545C95.4788 16.767 95.3151 16.2514 94.9877 15.9077C94.6603 15.5639 94.1365 15.392 93.4163 15.392C93.0562 15.392 92.5815 15.4002 91.9922 15.4166C91.4029 15.433 90.7972 15.4575 90.1752 15.4903C89.5532 15.523 88.9884 15.5557 88.481 15.5885V12.2737C88.8575 12.241 89.2995 12.2083 89.8069 12.1755C90.3143 12.1428 90.8382 12.1182 91.3783 12.1019C91.9185 12.0855 92.426 12.0773 92.9007 12.0773C94.2757 12.0773 95.4297 12.2737 96.3627 12.6666C97.3121 13.0594 98.0324 13.6569 98.5234 14.459C99.0145 15.2447 99.26 16.2596 99.26 17.5036V25.7537H96.1417ZM91.8449 26.0974C90.8791 26.0974 90.0279 25.9255 89.2913 25.5818C88.571 25.238 88.0063 24.747 87.5971 24.1086C87.1878 23.4538 86.9832 22.6763 86.9832 21.776C86.9832 20.7938 87.237 19.9917 87.7444 19.3697C88.2518 18.7313 88.9639 18.2648 89.8806 17.9702C90.7972 17.6592 91.853 17.5036 93.048 17.5036H95.9207V19.6889H93.0234C92.3359 19.6889 91.8039 19.8608 91.4274 20.2045C91.0673 20.5319 90.8873 20.9821 90.8873 21.555C90.8873 22.0952 91.0673 22.5371 91.4274 22.8809C91.8039 23.2083 92.3359 23.372 93.0234 23.372C93.4654 23.372 93.8582 23.2983 94.202 23.151C94.5621 22.9873 94.8568 22.7172 95.0859 22.3407C95.3151 21.9642 95.446 21.4404 95.4788 20.7693L96.4118 21.7514C96.33 22.6845 96.1008 23.4702 95.7243 24.1086C95.3642 24.747 94.8568 25.238 94.202 25.5818C93.5636 25.9255 92.7779 26.0974 91.8449 26.0974ZM110.868 26.1956C109.771 26.1956 108.805 25.9665 107.97 25.5081C107.136 25.0334 106.481 24.3541 106.006 23.4702C105.531 22.5862 105.278 21.5059 105.245 20.2291H105.711V25.7537H102.593V7.82953H106.522V16.9389L105.589 18.1175C105.638 16.7589 105.892 15.6212 106.35 14.7045C106.825 13.7715 107.471 13.0758 108.29 12.6175C109.108 12.1428 110.041 11.9054 111.089 11.9054C112.005 11.9054 112.832 12.0773 113.569 12.4211C114.322 12.7484 114.96 13.2231 115.484 13.8452C116.008 14.4508 116.409 15.1711 116.687 16.0059C116.982 16.8407 117.129 17.7492 117.129 18.7313V19.2715C117.129 20.2537 116.982 21.1621 116.687 21.997C116.409 22.8318 115.991 23.5684 115.435 24.2068C114.895 24.8288 114.24 25.3199 113.47 25.68C112.701 26.0238 111.834 26.1956 110.868 26.1956ZM109.837 22.9054C110.508 22.9054 111.089 22.7418 111.58 22.4144C112.087 22.087 112.48 21.6287 112.758 21.0394C113.037 20.4337 113.176 19.7544 113.176 19.0014C113.176 18.2321 113.037 17.5609 112.758 16.988C112.48 16.4151 112.087 15.9731 111.58 15.6621C111.089 15.3347 110.508 15.1711 109.837 15.1711C109.247 15.1711 108.691 15.3102 108.167 15.5885C107.643 15.8667 107.217 16.2678 106.89 16.7916C106.579 17.299 106.424 17.9211 106.424 18.6577V19.5662C106.424 20.27 106.587 20.8757 106.915 21.3831C107.258 21.8742 107.692 22.2507 108.216 22.5126C108.74 22.7745 109.28 22.9054 109.837 22.9054ZM120.496 25.7537V12.2983H124.424V25.7537H120.496ZM118.703 15.1956V12.2983H124.424V15.1956H118.703ZM122.018 10.9724C121.282 10.9724 120.733 10.7841 120.373 10.4077C120.029 10.0148 119.857 9.52373 119.857 8.93444C119.857 8.32878 120.029 7.83771 120.373 7.46122C120.733 7.06837 121.282 6.87194 122.018 6.87194C122.755 6.87194 123.295 7.06837 123.639 7.46122C123.999 7.83771 124.179 8.32878 124.179 8.93444C124.179 9.52373 123.999 10.0148 123.639 10.4077C123.295 10.7841 122.755 10.9724 122.018 10.9724ZM134.172 25.9255C132.813 25.9255 131.716 25.7618 130.882 25.4345C130.047 25.0907 129.433 24.526 129.04 23.7403C128.664 22.9382 128.475 21.8578 128.475 20.4992V8.66435H132.134V20.6465C132.134 21.2849 132.298 21.776 132.625 22.1197C132.969 22.4471 133.452 22.6108 134.074 22.6108H136.062V25.9255H134.172ZM126.437 15.1711V12.2983H136.062V15.1711H126.437ZM146.784 25.7537V21.776H146.121V17.4545C146.121 16.767 145.957 16.2514 145.63 15.9077C145.302 15.5639 144.778 15.392 144.058 15.392C143.698 15.392 143.223 15.4002 142.634 15.4166C142.045 15.433 141.439 15.4575 140.817 15.4903C140.195 15.523 139.63 15.5557 139.123 15.5885V12.2737C139.499 12.241 139.941 12.2083 140.449 12.1755C140.956 12.1428 141.48 12.1182 142.02 12.1019C142.56 12.0855 143.068 12.0773 143.542 12.0773C144.917 12.0773 146.071 12.2737 147.005 12.6666C147.954 13.0594 148.674 13.6569 149.165 14.459C149.656 15.2447 149.902 16.2596 149.902 17.5036V25.7537H146.784ZM142.487 26.0974C141.521 26.0974 140.67 25.9255 139.933 25.5818C139.213 25.238 138.648 24.747 138.239 24.1086C137.83 23.4538 137.625 22.6763 137.625 21.776C137.625 20.7938 137.879 19.9917 138.386 19.3697C138.894 18.7313 139.606 18.2648 140.522 17.9702C141.439 17.6592 142.495 17.5036 143.69 17.5036H146.563V19.6889H143.665C142.978 19.6889 142.446 19.8608 142.069 20.2045C141.709 20.5319 141.529 20.9821 141.529 21.555C141.529 22.0952 141.709 22.5371 142.069 22.8809C142.446 23.2083 142.978 23.372 143.665 23.372C144.107 23.372 144.5 23.2983 144.844 23.151C145.204 22.9873 145.499 22.7172 145.728 22.3407C145.957 21.9642 146.088 21.4404 146.121 20.7693L147.054 21.7514C146.972 22.6845 146.743 23.4702 146.366 24.1086C146.006 24.747 145.499 25.238 144.844 25.5818C144.205 25.9255 143.42 26.0974 142.487 26.0974ZM159.349 25.9255C157.99 25.9255 156.893 25.7618 156.059 25.4345C155.224 25.0907 154.61 24.526 154.217 23.7403C153.841 22.9382 153.652 21.8578 153.652 20.4992V8.66435H157.311V20.6465C157.311 21.2849 157.475 21.776 157.802 22.1197C158.146 22.4471 158.629 22.6108 159.251 22.6108H161.239V25.9255H159.349ZM151.614 15.1711V12.2983H161.239V15.1711H151.614ZM68.5974 56.7537V38.8295H72.526V56.7537H68.5974ZM72.0349 56.7537V53.4144H79.8675V56.7537H72.0349ZM72.0349 49.3139V45.9746H79.3028V49.3139H72.0349ZM72.0349 42.1688V38.8295H79.6956V42.1688H72.0349ZM87.8225 57.1711C85.9073 57.1711 84.4095 56.7782 83.3292 55.9925C82.2488 55.2068 81.6759 54.1019 81.6104 52.6778H85.097C85.1625 53.1034 85.4162 53.488 85.8582 53.8318C86.3165 54.1592 86.9958 54.3229 87.8961 54.3229C88.5836 54.3229 89.1484 54.2083 89.5903 53.9791C90.0487 53.7336 90.2778 53.3898 90.2778 52.9479C90.2778 52.555 90.106 52.244 89.7622 52.0148C89.4185 51.7693 88.8046 51.5974 87.9207 51.4992L86.8649 51.401C85.2443 51.2373 84.0248 50.7871 83.2064 50.0505C82.4043 49.3139 82.0033 48.3727 82.0033 47.2269C82.0033 46.2775 82.2406 45.4836 82.7153 44.8452C83.19 44.2068 83.8448 43.7239 84.6796 43.3965C85.5308 43.0691 86.4966 42.9054 87.5769 42.9054C89.3121 42.9054 90.7116 43.2901 91.7756 44.0594C92.8396 44.8124 93.3961 45.9092 93.4452 47.3496H89.9586C89.8932 46.9077 89.664 46.5394 89.2711 46.2447C88.8783 45.9337 88.2972 45.7782 87.5278 45.7782C86.9222 45.7782 86.4393 45.8928 86.0792 46.122C85.719 46.3511 85.539 46.6621 85.539 47.055C85.539 47.4315 85.6945 47.7179 86.0055 47.9144C86.3165 48.1108 86.824 48.2499 87.5278 48.3318L88.5836 48.43C90.2369 48.61 91.5219 49.0684 92.4385 49.805C93.3552 50.5416 93.8136 51.5319 93.8136 52.776C93.8136 53.6763 93.568 54.462 93.0769 55.1331C92.5859 55.7879 91.8902 56.2953 90.9899 56.6554C90.0896 56.9992 89.0338 57.1711 87.8225 57.1711ZM102.473 56.9255C101.114 56.9255 100.017 56.7618 99.1825 56.4345C98.3477 56.0907 97.7339 55.526 97.341 54.7403C96.9645 53.9382 96.7763 52.8578 96.7763 51.4992V39.6644H100.435V51.6465C100.435 52.2849 100.598 52.776 100.926 53.1197C101.27 53.4471 101.752 53.6108 102.375 53.6108H104.363V56.9255H102.473ZM94.7383 46.1711V43.2983H104.363V46.1711H94.7383ZM107.005 56.7537V43.2983H110.123V49.0684H110.05C110.05 47.1696 110.451 45.7045 111.253 44.6733C112.071 43.642 113.25 43.1264 114.789 43.1264H115.304V46.5148H114.322C113.242 46.5148 112.407 46.8095 111.818 47.3987C111.228 47.9717 110.934 48.8065 110.934 49.9032V56.7537H107.005ZM125.371 56.7537V52.776H124.708V48.4545C124.708 47.767 124.544 47.2514 124.217 46.9077C123.89 46.5639 123.366 46.392 122.646 46.392C122.286 46.392 121.811 46.4002 121.222 46.4166C120.632 46.433 120.027 46.4575 119.405 46.4903C118.783 46.523 118.218 46.5557 117.71 46.5885V43.2737C118.087 43.241 118.529 43.2083 119.036 43.1755C119.544 43.1428 120.067 43.1182 120.608 43.1019C121.148 43.0855 121.655 43.0773 122.13 43.0773C123.505 43.0773 124.659 43.2737 125.592 43.6666C126.541 44.0594 127.262 44.6569 127.753 45.459C128.244 46.2447 128.489 47.2596 128.489 48.5036V56.7537H125.371ZM121.074 57.0974C120.108 57.0974 119.257 56.9255 118.521 56.5818C117.8 56.238 117.236 55.747 116.826 55.1086C116.417 54.4538 116.213 53.6763 116.213 52.776C116.213 51.7938 116.466 50.9917 116.974 50.3697C117.481 49.7313 118.193 49.2648 119.11 48.9702C120.027 48.6592 121.082 48.5036 122.277 48.5036H125.15V50.6889H122.253C121.565 50.6889 121.033 50.8608 120.657 51.2045C120.297 51.5319 120.117 51.9821 120.117 52.555C120.117 53.0952 120.297 53.5371 120.657 53.8809C121.033 54.2083 121.565 54.372 122.253 54.372C122.695 54.372 123.088 54.2983 123.431 54.151C123.791 53.9873 124.086 53.7172 124.315 53.3407C124.544 52.9642 124.675 52.4404 124.708 51.7693L125.641 52.7514C125.559 53.6845 125.33 54.4702 124.954 55.1086C124.594 55.747 124.086 56.238 123.431 56.5818C122.793 56.9255 122.007 57.0974 121.074 57.0974ZM137.936 56.9255C136.578 56.9255 135.481 56.7618 134.646 56.4345C133.811 56.0907 133.198 55.526 132.805 54.7403C132.428 53.9382 132.24 52.8578 132.24 51.4992V39.6644H135.898V51.6465C135.898 52.2849 136.062 52.776 136.39 53.1197C136.733 53.4471 137.216 53.6108 137.838 53.6108H139.827V56.9255H137.936ZM130.202 46.1711V43.2983H139.827V46.1711H130.202ZM148.584 57.2202C147.438 57.2202 146.423 57.0238 145.539 56.6309C144.672 56.238 143.943 55.7142 143.354 55.0595C142.781 54.3883 142.339 53.6435 142.028 52.8251C141.733 51.9903 141.586 51.1391 141.586 50.2715V49.7804C141.586 48.8801 141.733 48.0208 142.028 47.2023C142.339 46.3675 142.781 45.6227 143.354 44.9679C143.927 44.3132 144.639 43.7975 145.49 43.4211C146.358 43.0282 147.34 42.8318 148.437 42.8318C149.877 42.8318 151.088 43.1591 152.07 43.8139C153.069 44.4523 153.83 45.2953 154.354 46.3429C154.878 47.3742 155.14 48.5036 155.14 49.7313V51.0572H143.231V48.8228H152.758L151.481 49.8541C151.481 49.052 151.367 48.3645 151.137 47.7916C150.908 47.2187 150.564 46.7849 150.106 46.4903C149.664 46.1792 149.108 46.0237 148.437 46.0237C147.749 46.0237 147.168 46.1792 146.693 46.4903C146.218 46.8013 145.858 47.2596 145.613 47.8653C145.367 48.4545 145.245 49.183 145.245 50.0505C145.245 50.8526 145.359 51.5565 145.588 52.1621C145.817 52.7514 146.178 53.2098 146.669 53.5371C147.16 53.8645 147.798 54.0282 148.584 54.0282C149.304 54.0282 149.893 53.8891 150.352 53.6108C150.81 53.3325 151.121 52.9888 151.285 52.5795H154.894C154.698 53.4798 154.313 54.2819 153.74 54.9858C153.167 55.6897 152.447 56.238 151.579 56.6309C150.712 57.0238 149.713 57.2202 148.584 57.2202ZM146.497 41.7269L148.707 36.5952H152.733L149.934 41.7269H146.497ZM163.046 62.1063C162.392 62.1063 161.721 62.0818 161.033 62.0327C160.346 61.9836 159.715 61.9181 159.142 61.8363V58.5215C159.715 58.6034 160.346 58.6688 161.033 58.718C161.737 58.7834 162.375 58.8162 162.948 58.8162C164.012 58.8162 164.872 58.6934 165.526 58.4479C166.198 58.2023 166.689 57.8258 167 57.3184C167.311 56.8273 167.466 56.1889 167.466 55.4032V52.7269L168.178 51.1554C168.145 52.3504 167.908 53.3734 167.466 54.2246C167.041 55.0758 166.443 55.7306 165.674 56.1889C164.904 56.6309 163.988 56.8519 162.924 56.8519C162.007 56.8519 161.172 56.6882 160.419 56.3608C159.683 56.0171 159.052 55.5424 158.529 54.9367C158.005 54.331 157.604 53.6272 157.325 52.8251C157.047 52.0066 156.908 51.1227 156.908 50.1733V49.6086C156.908 48.6592 157.055 47.7752 157.35 46.9568C157.645 46.1383 158.07 45.4263 158.627 44.8206C159.183 44.215 159.846 43.7484 160.616 43.4211C161.385 43.0773 162.236 42.9054 163.169 42.9054C164.25 42.9054 165.183 43.1428 165.968 43.6175C166.77 44.0922 167.401 44.7879 167.859 45.7045C168.317 46.6212 168.563 47.7261 168.596 49.0193L168.055 49.1666V43.2983H171.174V55.1577C171.174 56.811 170.879 58.145 170.29 59.1599C169.7 60.1748 168.8 60.9196 167.589 61.3943C166.394 61.869 164.88 62.1063 163.046 62.1063ZM164.151 53.5371C164.757 53.5371 165.305 53.4062 165.796 53.1443C166.288 52.866 166.672 52.4731 166.95 51.9657C167.245 51.4583 167.392 50.8444 167.392 50.1242V49.4121C167.392 48.7083 167.237 48.119 166.926 47.6443C166.631 47.1532 166.238 46.7849 165.747 46.5394C165.256 46.2775 164.732 46.1465 164.176 46.1465C163.521 46.1465 162.94 46.302 162.433 46.613C161.925 46.924 161.532 47.3578 161.254 47.9144C160.976 48.4709 160.837 49.1257 160.837 49.8787C160.837 50.648 160.976 51.3109 161.254 51.8675C161.549 52.4077 161.942 52.8251 162.433 53.1197C162.94 53.398 163.513 53.5371 164.151 53.5371ZM175.214 56.7537V43.2983H179.143V56.7537H175.214ZM173.422 46.1956V43.2983H179.143V46.1956H173.422ZM176.736 41.9724C176 41.9724 175.451 41.7841 175.091 41.4077C174.747 41.0148 174.576 40.5237 174.576 39.9344C174.576 39.3288 174.747 38.8377 175.091 38.4612C175.451 38.0684 176 37.8719 176.736 37.8719C177.473 37.8719 178.013 38.0684 178.357 38.4612C178.717 38.8377 178.897 39.3288 178.897 39.9344C178.897 40.5237 178.717 41.0148 178.357 41.4077C178.013 41.7841 177.473 41.9724 176.736 41.9724ZM188.816 57.2202C187.654 57.2202 186.639 57.0319 185.772 56.6554C184.92 56.2626 184.208 55.7388 183.635 55.084C183.063 54.4293 182.637 53.6926 182.359 52.8742C182.08 52.0394 181.941 51.18 181.941 50.2961V49.8295C181.941 48.9129 182.089 48.0371 182.383 47.2023C182.678 46.3511 183.112 45.5981 183.685 44.9434C184.257 44.2886 184.97 43.773 185.821 43.3965C186.688 43.02 187.679 42.8318 188.792 42.8318C190.003 42.8318 191.075 43.0691 192.008 43.5438C192.941 44.0022 193.686 44.6487 194.243 45.4836C194.799 46.3184 195.11 47.276 195.176 48.3563H191.321C191.255 47.7507 191.01 47.2432 190.584 46.834C190.175 46.4084 189.577 46.1956 188.792 46.1956C188.137 46.1956 187.589 46.3593 187.147 46.6867C186.721 47.0141 186.402 47.4642 186.189 48.0371C185.976 48.61 185.87 49.2894 185.87 50.0751C185.87 50.7953 185.968 51.4501 186.164 52.0394C186.361 52.6123 186.672 53.0624 187.097 53.3898C187.539 53.7008 188.112 53.8563 188.816 53.8563C189.34 53.8563 189.782 53.7663 190.142 53.5862C190.519 53.3898 190.813 53.1279 191.026 52.8005C191.255 52.4568 191.394 52.0639 191.443 51.622H195.274C195.225 52.7351 194.914 53.7172 194.341 54.5684C193.768 55.4032 193.007 56.058 192.057 56.5327C191.108 56.991 190.028 57.2202 188.816 57.2202ZM204.342 57.2202C203.164 57.2202 202.116 57.0401 201.199 56.68C200.283 56.3035 199.505 55.7961 198.867 55.1577C198.245 54.5193 197.77 53.7909 197.443 52.9724C197.115 52.1376 196.952 51.2618 196.952 50.3452V49.7804C196.952 48.8474 197.115 47.9635 197.443 47.1286C197.786 46.2775 198.277 45.5327 198.916 44.8943C199.571 44.2559 200.356 43.7566 201.273 43.3965C202.19 43.02 203.213 42.8318 204.342 42.8318C205.504 42.8318 206.536 43.02 207.436 43.3965C208.353 43.7566 209.13 44.2559 209.769 44.8943C210.407 45.5327 210.898 46.2775 211.242 47.1286C211.585 47.9635 211.757 48.8474 211.757 49.7804V50.3452C211.757 51.2618 211.594 52.1376 211.266 52.9724C210.939 53.7909 210.456 54.5193 209.818 55.1577C209.196 55.7961 208.426 56.3035 207.51 56.68C206.593 57.0401 205.537 57.2202 204.342 57.2202ZM204.342 53.9054C205.112 53.9054 205.75 53.7418 206.257 53.4144C206.765 53.087 207.149 52.6287 207.411 52.0394C207.69 51.4501 207.829 50.7953 207.829 50.0751C207.829 49.3057 207.69 48.6346 207.411 48.0617C207.133 47.4724 206.732 47.0059 206.208 46.6621C205.701 46.3184 205.079 46.1465 204.342 46.1465C203.622 46.1465 203 46.3184 202.476 46.6621C201.952 47.0059 201.551 47.4724 201.273 48.0617C201.011 48.6346 200.88 49.3057 200.88 50.0751C200.88 50.7953 201.011 51.4501 201.273 52.0394C201.535 52.6287 201.928 53.087 202.452 53.4144C202.975 53.7418 203.606 53.9054 204.342 53.9054Z" fill="#FF9C39"/>
</svg>
